<?xml version="1.0" encoding="UTF-8"?>
<svg xmlns="http://www.w3.org/2000/svg" xmlns:xlink="http://www.w3.org/1999/xlink" width="0" height="0">
<!-- Uploaded to: SVG Repo, www.svgrepo.com, Generator: SVG Repo Mixer Tools -->
<symbol id="rd-icon-spotter" viewBox="0 0 16 16">
<path xmlns="http://www.w3.org/2000/svg" d="M501.501,10.389c-5.521-6.391-13.389-9.873-23.407-10.334C422.09-2.667,295.498,96.277,195.308,195.383    C76.9,312.511,0.296,422.028,0.142,474.389c-0.034,11.341,3.277,20.42,9.847,26.991c7.262,7.262,16.802,10.496,28.058,10.496    c75.546-0.026,227.755-145.63,277.905-195.78C373.484,258.564,556.669,66.709,501.501,10.389z M154.724,414.971    c-6.613,3.814-14.046,5.658-21.444,5.658c-11.162,0-22.238-4.207-30.285-12.254c-6.281-6.289-15.753-8.772-24.713-6.477    c-4.548,1.195-9.208-1.596-10.377-6.161c-1.161-4.565,1.596-9.216,6.161-10.377c14.754-3.772,30.473,0.418,40.994,10.948    c8.03,8.021,21.12,9.651,31.147,3.874c4.079-2.347,9.31-0.947,11.657,3.132C160.211,407.402,158.811,412.616,154.724,414.971z     M223.673,348.036c-8.175,8.175-19.174,12.262-30.165,12.262c-10.999,0-21.99-4.087-30.174-12.262    c-9.421-9.429-26.778-9.429-36.207,0c-3.328,3.336-8.73,3.336-12.066,0c-3.328-3.337-3.328-8.73,0-12.066    c7.936-7.936,18.654-12.305,30.174-12.305s22.229,4.369,30.165,12.305c9.822,9.805,26.394,9.805,36.207,0    c3.337-3.337,8.738-3.337,12.066,0C227.01,339.306,227.01,344.708,223.673,348.036z M284.012,287.697    c-8.175,8.175-19.166,12.262-30.165,12.262c-10.999,0-21.999-4.087-30.174-12.262c-9.421-9.429-26.778-9.429-36.198,0    c-3.328,3.328-8.738,3.328-12.066,0c-3.336-3.328-3.336-8.738,0-12.066c7.927-7.945,18.645-12.314,30.165-12.314    c11.52,0,22.238,4.369,30.165,12.314c9.813,9.796,26.385,9.805,36.207,0c3.337-3.337,8.738-3.337,12.066,0    C287.349,278.958,287.349,284.36,284.012,287.697z M344.351,227.357c-8.175,8.175-19.174,12.262-30.165,12.262    c-11,0-21.99-4.087-30.165-12.262c-9.822-9.813-26.394-9.813-36.207,0c-3.337,3.336-8.738,3.336-12.075,0    c-3.328-3.337-3.328-8.738,0-12.066c16.35-16.358,43.998-16.358,60.348,0c9.805,9.805,26.385,9.805,36.198,0    c3.337-3.337,8.738-3.337,12.066,0C347.688,218.619,347.688,224.029,344.351,227.357z M404.691,167.018    c-7.927,7.936-18.645,12.305-30.165,12.305c-11.52,0-22.238-4.369-30.174-12.305c-9.813-9.813-26.385-9.822-36.198,0    c-3.337,3.328-8.738,3.328-12.066,0c-3.337-3.337-3.337-8.738,0-12.066c16.35-16.367,43.989-16.358,60.339,0    c9.421,9.421,26.778,9.421,36.198,0c3.328-3.336,8.738-3.336,12.066,0C408.027,158.28,408.027,163.682,404.691,167.018z     M445.685,117.627c-3.575,0.913-7.219,1.357-10.82,1.357c-11.255,0-22.204-4.344-30.174-12.314    c-8.013-8.021-21.111-9.651-31.138-3.866c-4.087,2.338-9.301,0.947-11.657-3.14c-2.347-4.079-0.947-9.301,3.14-11.657    c16.589-9.54,38.34-6.784,51.729,6.596c6.281,6.289,15.753,8.781,24.704,6.485c4.565-1.178,9.207,1.596,10.377,6.161    C453.006,111.816,450.25,116.458,445.685,117.627z"/>
</symbol>
<!-- Uploaded to: SVG Repo, www.svgrepo.com, Generator: SVG Repo Mixer Tools -->
<symbol id="rd-icon-aperture" viewBox="0 0 16 16">
<path d="M5.6906 6.00001L3.16512 1.62576C4.50811 0.605527 6.18334 0 8 0C8.37684 0 8.74759 0.0260554 9.11056 0.076463L5.6906 6.00001Z" fill="#000000"/>
<path d="M5.11325 9L1.69363 3.07705C0.632438 4.43453 0 6.14341 0 8C0 8.33866 0.0210434 8.67241 0.0618939 9H5.11325Z" fill="#000000"/>
<path d="M4.89635 15.3757C2.93947 14.5512 1.37925 12.9707 0.581517 11H7.42265L4.89635 15.3757Z" fill="#000000"/>
<path d="M8 16C7.62316 16 7.25241 15.9739 6.88944 15.9235L10.3094 10L12.8349 14.3742C11.4919 15.3945 9.81666 16 8 16Z" fill="#000000"/>
<path d="M16 8C16 9.85659 15.3676 11.5655 14.3064 12.9229L10.8868 7H15.9381C15.979 7.32759 16 7.66134 16 8Z" fill="#000000"/>
<path d="M11.1036 0.624326C13.0605 1.44877 14.6208 3.02927 15.4185 5H8.57735L11.1036 0.624326Z" fill="#000000"/>
</symbol>
</svg>
