<?xml version="1.0" encoding="UTF-8"?>
<svg xmlns="http://www.w3.org/2000/svg" xmlns:xlink="http://www.w3.org/1999/xlink" width="0" height="0">
<!-- Uploaded to: SVG Repo, www.svgrepo.com, Generator: SVG Repo Mixer Tools -->
<symbol id="rd-icon-spotter" viewBox="-0.5 0 17 17">
<path xmlns="http://www.w3.org/2000/svg" d="M12.942,9.189 C13.314,8.937 13.707,8.715 14.115,8.523 C13.664,7.867 13.144,7.204 12.554,6.55 C11.662,6.618 10.796,6.798 9.99,7.107 C8.317,7.75 7.636,6.88 9.219,5.796 C9.744,5.438 10.31,5.148 10.904,4.917 C10.167,4.259 9.413,3.671 8.661,3.165 C7.83,3.243 7.023,3.423 6.266,3.713 C4.595,4.355 3.912,3.485 5.497,2.402 C5.788,2.203 6.095,2.031 6.408,1.87 C3.859,0.668 1.6,0.515 0.523,1.697 C-1.196,3.581 1.888,6.893 6.002,10.641 C10.113,14.389 13.693,17.155 15.414,15.27 C16.387,14.202 16.181,12.269 15.075,10.112 C14.608,10.212 14.15,10.331 13.713,10.5 C12.039,11.143 11.357,10.274 12.942,9.189 L12.942,9.189 Z" fill="#434343" class="si-glyph-fill">
</symbol>
<!-- Uploaded to: SVG Repo, www.svgrepo.com, Generator: SVG Repo Mixer Tools -->
<symbol id="rd-icon-aperture" viewBox="0 0 16 16">
<path d="M5.6906 6.00001L3.16512 1.62576C4.50811 0.605527 6.18334 0 8 0C8.37684 0 8.74759 0.0260554 9.11056 0.076463L5.6906 6.00001Z" fill="#000000"/>
<path d="M5.11325 9L1.69363 3.07705C0.632438 4.43453 0 6.14341 0 8C0 8.33866 0.0210434 8.67241 0.0618939 9H5.11325Z" fill="#000000"/>
<path d="M4.89635 15.3757C2.93947 14.5512 1.37925 12.9707 0.581517 11H7.42265L4.89635 15.3757Z" fill="#000000"/>
<path d="M8 16C7.62316 16 7.25241 15.9739 6.88944 15.9235L10.3094 10L12.8349 14.3742C11.4919 15.3945 9.81666 16 8 16Z" fill="#000000"/>
<path d="M16 8C16 9.85659 15.3676 11.5655 14.3064 12.9229L10.8868 7H15.9381C15.979 7.32759 16 7.66134 16 8Z" fill="#000000"/>
<path d="M11.1036 0.624326C13.0605 1.44877 14.6208 3.02927 15.4185 5H8.57735L11.1036 0.624326Z" fill="#000000"/>
</symbol>
</svg>
