<?xml version="1.0" encoding="UTF-8"?>
<svg xmlns="http://www.w3.org/2000/svg" xmlns:xlink="http://www.w3.org/1999/xlink" width="0" height="0">
<!-- Uploaded to: SVG Repo, www.svgrepo.com, Generator: SVG Repo Mixer Tools -->
<symbol id="rd-icon-spotter" viewBox="0 0 48 48">
     <path xmlns="http://www.w3.org/2000/svg" d="M45.6,18.7,41,14.9V7.5a1,1,0,0,0-.6-.9L30.5,2.1h-.4l-.6.2L24,5.9,18.5,2.2,17.9,2h-.4L7.6,6.6a1,1,0,0,0-.6.9v7.4L2.4,18.7a.8.8,0,0,0-.4.8v9H2a.8.8,0,0,0,.4.8L7,33.1v7.4a1,1,0,0,0,.6.9l9.9,4.5h.4l.6-.2L24,42.1l5.5,3.7.6.2h.4l9.9-4.5a1,1,0,0,0,.6-.9V33.1l4.6-3.8a.8.8,0,0,0,.4-.7V19.4h0A.8.8,0,0,0,45.6,18.7Zm-5.1,6.8H42v1.6l-3.5,2.8-.4.3-.4-.2a1.4,1.4,0,0,0-2,.7,1.5,1.5,0,0,0,.6,2l.7.3h0v5.4l-6.6,3.1-4.2-2.8-.7-.5V25.5H27a1.5,1.5,0,0,0,0-3H25.5V9.7l.7-.5,4.2-2.8L37,9.5v5.4h0l-.7.3a1.5,1.5,0,0,0-.6,2,1.4,1.4,0,0,0,1.3.9l.7-.2.4-.2.4.3L42,20.9v1.6H40.5a1.5,1.5,0,0,0,0,3ZM21,25.5h1.5V38.3l-.7.5-4.2,2.8L11,38.5V33.1h0l.7-.3a1.5,1.5,0,0,0,.6-2,1.4,1.4,0,0,0-2-.7l-.4.2-.4-.3L6,27.1V25.5H7.5a1.5,1.5,0,0,0,0-3H6V20.9l3.5-2.8.4-.3.4.2.7.2a1.4,1.4,0,0,0,1.3-.9,1.5,1.5,0,0,0-.6-2L11,15h0V9.5l6.6-3.1,4.2,2.8.7.5V22.5H21a1.5,1.5,0,0,0,0,3Z"/>
     <path xmlns="http://www.w3.org/2000/svg" d="M13.9,9.9a1.8,1.8,0,0,0,0,2.2l2.6,2.5v2.8l-4,4v5.2l4,4v2.8l-2.6,2.5a1.8,1.8,0,0,0,0,2.2,1.5,1.5,0,0,0,1.1.4,1.5,1.5,0,0,0,1.1-.4l3.4-3.5V29.4l-4-4V22.6l4-4V13.4L16.1,9.9A1.8,1.8,0,0,0,13.9,9.9Z"/>
     <path xmlns="http://www.w3.org/2000/svg" d="M31.5,14.6l2.6-2.5a1.8,1.8,0,0,0,0-2.2,1.8,1.8,0,0,0-2.2,0l-3.4,3.5v5.2l4,4v2.8l-4,4v5.2l3.4,3.5a1.7,1.7,0,0,0,2.2,0,1.8,1.8,0,0,0,0-2.2l-2.6-2.5V30.6l4-4V21.4l-4-4Z"/>
</symbol>
<!-- Uploaded to: SVG Repo, www.svgrepo.com, Generator: SVG Repo Mixer Tools -->
<symbol id="rd-icon-aperture" viewBox="0 0 16 16">
<path d="M5.6906 6.00001L3.16512 1.62576C4.50811 0.605527 6.18334 0 8 0C8.37684 0 8.74759 0.0260554 9.11056 0.076463L5.6906 6.00001Z" fill="#000000"/>
<path d="M5.11325 9L1.69363 3.07705C0.632438 4.43453 0 6.14341 0 8C0 8.33866 0.0210434 8.67241 0.0618939 9H5.11325Z" fill="#000000"/>
<path d="M4.89635 15.3757C2.93947 14.5512 1.37925 12.9707 0.581517 11H7.42265L4.89635 15.3757Z" fill="#000000"/>
<path d="M8 16C7.62316 16 7.25241 15.9739 6.88944 15.9235L10.3094 10L12.8349 14.3742C11.4919 15.3945 9.81666 16 8 16Z" fill="#000000"/>
<path d="M16 8C16 9.85659 15.3676 11.5655 14.3064 12.9229L10.8868 7H15.9381C15.979 7.32759 16 7.66134 16 8Z" fill="#000000"/>
<path d="M11.1036 0.624326C13.0605 1.44877 14.6208 3.02927 15.4185 5H8.57735L11.1036 0.624326Z" fill="#000000"/>
</symbol>
</svg>
