<?xml version="1.0" encoding="UTF-8"?>
<svg xmlns="http://www.w3.org/2000/svg" xmlns:xlink="http://www.w3.org/1999/xlink" width="0" height="0">
<!-- Uploaded to: SVG Repo, www.svgrepo.com, Generator: SVG Repo Mixer Tools -->
<symbol id="rd-icon-spotter" viewBox="0 0 16 16">
<path xmlns="http://www.w3.org/2000/svg" d="M3.95706 1.45712L1.45706 3.95712L0.0428467 2.54291L2.54285 0.0429077L3.95706 1.45712Z" fill="#000000"/>
<path xmlns="http://www.w3.org/2000/svg" fill-rule="evenodd" clip-rule="evenodd" d="M14.4999 8.50003C14.4999 9.80523 14.1152 11.0206 13.453 12.0389L15.707 14.2929L14.2928 15.7071L12.1163 13.5307C10.9954 14.449 9.56199 15 7.99986 15C6.43776 15 5.00436 14.449 3.88344 13.5307L1.70701 15.7071L0.2928 14.2929L2.54678 12.0389C1.88457 11.0206 1.49986 9.80525 1.49986 8.50003C1.49986 4.91018 4.41001 2.00003 7.99986 2.00003C11.5897 2.00003 14.4999 4.91018 14.4999 8.50003ZM6.99995 5V9.41421L9.29285 11.7071L10.7071 10.2929L8.99995 8.58579V5H6.99995Z" fill="#000000"/>
</symbol>
<!-- Uploaded to: SVG Repo, www.svgrepo.com, Generator: SVG Repo Mixer Tools -->
<symbol id="rd-icon-aperture" viewBox="0 0 16 16">
<path d="M5.6906 6.00001L3.16512 1.62576C4.50811 0.605527 6.18334 0 8 0C8.37684 0 8.74759 0.0260554 9.11056 0.076463L5.6906 6.00001Z" fill="#000000"/>
<path d="M5.11325 9L1.69363 3.07705C0.632438 4.43453 0 6.14341 0 8C0 8.33866 0.0210434 8.67241 0.0618939 9H5.11325Z" fill="#000000"/>
<path d="M4.89635 15.3757C2.93947 14.5512 1.37925 12.9707 0.581517 11H7.42265L4.89635 15.3757Z" fill="#000000"/>
<path d="M8 16C7.62316 16 7.25241 15.9739 6.88944 15.9235L10.3094 10L12.8349 14.3742C11.4919 15.3945 9.81666 16 8 16Z" fill="#000000"/>
<path d="M16 8C16 9.85659 15.3676 11.5655 14.3064 12.9229L10.8868 7H15.9381C15.979 7.32759 16 7.66134 16 8Z" fill="#000000"/>
<path d="M11.1036 0.624326C13.0605 1.44877 14.6208 3.02927 15.4185 5H8.57735L11.1036 0.624326Z" fill="#000000"/>
</symbol>
</svg>
