<?xml version="1.0" encoding="UTF-8"?>
<svg xmlns="http://www.w3.org/2000/svg" xmlns:xlink="http://www.w3.org/1999/xlink" width="0" height="0">
<!-- Uploaded to: SVG Repo, www.svgrepo.com, Generator: SVG Repo Mixer Tools -->
<symbol id="rd-icon-spotter" viewBox="0 0 48 48">
<path xmlns="http://www.w3.org/2000/svg" d="M17.9,2h-.4L7.6,6.6a1,1,0,0,0-.6.9v7.4l-.6.5-4,3.3a.8.8,0,0,0-.4.8v9a.9.9,0,0,0,.4.8l4,3.3.6.5v7.4a1,1,0,0,0,.6.9l9.9,4.5h.4l.6-.2,4-2.7V25.5H21a1.5,1.5,0,0,1,0-3h1.5V4.9l-4-2.7ZM9,13.5l2.8,1.9a1.5,1.5,0,0,1,.4,2.1,1.4,1.4,0,0,1-1.2.7,1.1,1.1,0,0,1-.8-.3L9,17.1Zm-5,9H7.5a1.5,1.5,0,0,1,0,3H4Zm5,8.4,1.2-.8a1.4,1.4,0,0,1,2,.4,1.5,1.5,0,0,1-.4,2.1L9,34.5ZM19.5,18.6l-4,4v2.8l4,4v5.2l-3.4,3.5a2.1,2.1,0,0,1-1.1.4,2.1,2.1,0,0,1-1.1-.4,1.6,1.6,0,0,1,0-2.2l2.6-2.5V30.6l-4-4V21.4l4-4V14.6l-2.6-2.5a1.6,1.6,0,1,1,2.2-2.2l3.4,3.5Z"/>
     <path xmlns="http://www.w3.org/2000/svg" d="M45.6,18.7l-4-3.3-.6-.5V7.5a1,1,0,0,0-.6-.9L30.5,2.1h-.4l-.6.2-4,2.7V22.5H27a1.5,1.5,0,0,1,0,3H25.5V43.1l4,2.7.6.2h.4l9.9-4.5a1,1,0,0,0,.6-.9V33.1l.6-.5,4-3.3a.9.9,0,0,0,.4-.8v-9A.8.8,0,0,0,45.6,18.7ZM39,17.1l-1.2.8a1.1,1.1,0,0,1-.8.3,1.4,1.4,0,0,1-1.2-.7,1.5,1.5,0,0,1,.4-2.1L39,13.5ZM28.5,29.4l4-4V22.6l-4-4V13.4l3.4-3.5a1.6,1.6,0,0,1,2.2,2.2l-2.6,2.5v2.8l4,4v5.2l-4,4v2.8l2.6,2.5a1.6,1.6,0,0,1,0,2.2,1.7,1.7,0,0,1-2.2,0l-3.4-3.5ZM39,34.5l-2.8-1.9a1.5,1.5,0,0,1-.4-2.1,1.4,1.4,0,0,1,2-.4l1.2.8Zm5-9H40.5a1.5,1.5,0,0,1,0-3H44Z"/>
</symbol>
<!-- Uploaded to: SVG Repo, www.svgrepo.com, Generator: SVG Repo Mixer Tools -->
<symbol id="rd-icon-aperture" viewBox="0 0 16 16">
<path d="M5.6906 6.00001L3.16512 1.62576C4.50811 0.605527 6.18334 0 8 0C8.37684 0 8.74759 0.0260554 9.11056 0.076463L5.6906 6.00001Z" fill="#000000"/>
<path d="M5.11325 9L1.69363 3.07705C0.632438 4.43453 0 6.14341 0 8C0 8.33866 0.0210434 8.67241 0.0618939 9H5.11325Z" fill="#000000"/>
<path d="M4.89635 15.3757C2.93947 14.5512 1.37925 12.9707 0.581517 11H7.42265L4.89635 15.3757Z" fill="#000000"/>
<path d="M8 16C7.62316 16 7.25241 15.9739 6.88944 15.9235L10.3094 10L12.8349 14.3742C11.4919 15.3945 9.81666 16 8 16Z" fill="#000000"/>
<path d="M16 8C16 9.85659 15.3676 11.5655 14.3064 12.9229L10.8868 7H15.9381C15.979 7.32759 16 7.66134 16 8Z" fill="#000000"/>
<path d="M11.1036 0.624326C13.0605 1.44877 14.6208 3.02927 15.4185 5H8.57735L11.1036 0.624326Z" fill="#000000"/>
</symbol>
</svg>
